<?xml version="1.0" encoding="UTF-8"?>
<svg id="Layer_1" xmlns="http://www.w3.org/2000/svg" version="1.1" viewBox="0 0 469.1 462.9">
  <!-- Generator: Adobe Illustrator 29.3.1, SVG Export Plug-In . SVG Version: 2.1.0 Build 151)  -->
  <path d="M405.2-1c-9,0-18.7,5.8-24.3,19.4-11.1,26.8-31.9,59.2-58.6,93.5,10.6,8.7,19.9,18.9,27.5,30.3,35.1-26.6,68.9-46.8,98.1-56.8,44.6-15.2,12-69.7-35.3-35.3,26.9-27.8,11.1-51.3-7.4-51.1h0ZM64-1c-18.5.4-37.6,24-16.3,49.9C11.4,15.4-20.9,62.3,17,79.6c28.1,12.8,62.5,35.7,99.1,64.3,8.1-12.5,18.2-23.6,29.8-32.9-26.8-35.7-48.4-69.8-61.8-98.5-4.5-9.7-12.2-13.7-20-13.5h0ZM233.5,98.7c-67.1,0-121.3,54.2-121.3,121.3s24,83.6,59.9,104.7v56.4h18.7v-47.5c5.2,2,10.6,3.6,16.1,4.8v42.7h18.7v-40c2.6.2,5.2.2,7.9.2s5.2,0,7.8-.2v40h18.7v-42.7c5.5-1.2,10.9-2.8,16.1-4.8v47.5h18.7v-56.3c35.9-21,60-60,60-104.7,0-67.1-54.2-121.3-121.3-121.3h0ZM166.6,186.9c19.9,0,36,16.1,36,36s-16.1,36-36,36-36-16.1-36-36,16.1-36,36-36ZM300.2,186.9c19.9,0,36,16.1,36,36s-16.1,36-36,36-36-16.1-36-36,16.1-36,36-36ZM233.5,239.3l29.9,48.2h-59.9l29.9-48.2h0ZM126.2,309.8c-40.3,32.5-78.5,58.4-109.2,72.4-37.9,17.3-5.6,64.1,30.7,30.7-30.2,36.9,21.2,69,36.4,36.4,15.1-32.4,40.7-71.7,72.4-112.5-11.4-7.5-21.6-16.6-30.3-27h0ZM339.4,311.6c-8.2,9.4-17.5,17.7-27.9,24.7,31.8,39.4,56.8,76.9,69.4,107.2,17.2,41.4,71.8,9.7,31.7-31.7,47.4,34.4,79.9-20.2,35.3-35.3-32.1-10.9-69.8-34.3-108.6-64.8h0Z"/>
</svg>