<?xml version="1.0" encoding="utf-8"?>
<!-- Generator: Adobe Illustrator 23.0.0, SVG Export Plug-In . SVG Version: 6.00 Build 0)  -->
<svg version="1.1" id="Layer_1" xmlns="http://www.w3.org/2000/svg" xmlns:xlink="http://www.w3.org/1999/xlink" x="0px" y="0px"
	 viewBox="0 0 76.7464218 83.2460938" style="enable-background:new 0 0 76.7464218 83.2460938;" xml:space="preserve">
<style type="text/css">
	.st0{fill:#862C21;}
	.st1{fill:#C54032;}
	.st2{fill:#B56228;}
	.st3{fill:#F48120;}
	.st4{fill:#BFB631;}
	.st5{fill:#FFF100;}
	.st6{fill:#006735;}
	.st7{fill:#00A551;}
	.st8{fill:#00394D;}
	.st9{fill:#00688C;}
	.st10{fill:#1C3A69;}
	.st11{fill:#035BA9;}
	.st12{fill:#361935;}
	.st13{fill:#763774;}
	.st14{fill:#3A3E40;}
	.st15{fill:#616364;}
	.st16{fill:#9DA0A2;}
	.st17{fill:#C5C7C9;}
	.st18{fill:#FFFFFF;}
	.st19{fill:#B4646B;}
	.st20{fill:#F3868F;}
	.st21{fill:#A57A30;}
	.st22{fill:#E4A946;}
	.st23{fill:#584939;}
	.st24{fill:#7F5A30;}
</style>
<g>
	<path d="M19.0428066,83.2460938c-0.425293,0-0.84375-0.097168-1.2109375-0.2807617L4.0144868,76.5566406
		c-1.0087891-0.4829102-1.6191406-1.4907227-1.6376953-2.6982422l-0.0024414-0.2915039
		c-0.0024414-0.222168-0.0043945-0.4472656,0.0029297-0.644043c-0.0004883-0.472168,0.0341797-1.0151367,0.105957-1.6420898
		C2.4842134,71.25,2.4910493,71.1982422,2.4998384,71.1469727c0.0620117-0.5249023,0.1577148-1.0527344,0.2460938-1.5083008
		l0.0200195-0.1435547c0.012207-0.0585938,0.0283203-0.1230469,0.0493164-0.1948242
		c0.0419922-0.230957,0.105957-0.5195312,0.1679688-0.7890625c0.0258789-0.1157227,0.0532227-0.2255859,0.0908203-0.34375
		c0.0419922-0.1962891,0.1044922-0.4350586,0.1665039-0.6694336l0.0356445-0.1586914c0,0,0.2216797-0.753418,0.3232422-1.0893555
		l0.0844727-0.265625c0.0629883-0.2148438,0.1411133-0.4443359,0.2211914-0.6738281l0.0463867-0.1948242l0.0253906-0.0498047
		l0.0981445-0.2700195l0.1850586-0.5395508l0.34375-0.9326172l0.0498047-0.1113281
		c0.0629883-0.1865234,0.1464844-0.4047852,0.230957-0.6040039l0.2304688-0.5712891
		c0.0625-0.1469727,0.1220703-0.2841797,0.1860352-0.4111328l6.4931645-14.6337891l-8.5996094-3.9912109
		c-0.9716797-0.4516602-1.7431639-1.1713867-2.2929688-2.1401367l-0.0625-0.1225586
		c-0.4882812-1.0854492-0.7563477-2.1728516-0.8188477-3.3256836c-0.0209961-0.1826172-0.0263672-0.3999023-0.0131836-0.6645508
		c0.0004883-0.2001953,0.0136719-0.4272461,0.0405273-0.6777344c0.0288086-0.3173828,0.0449219-0.4785156,0.0825195-0.6665039
		c0.0185547-0.1386719,0.0424805-0.2705078,0.065918-0.3740234c0.0092773-0.0595703,0.0283203-0.152832,0.0585938-0.2519531
		c0.0205078-0.09375,0.0541992-0.2172852,0.0893555-0.3466797l0.0869141-0.3095703l0.0429688-0.1166992
		c0.0581055-0.1738281,0.105957-0.3061523,0.1499023-0.4160156c0.0151367-0.0478516,0.0375977-0.1088867,0.0629883-0.1757812
		v-0.012207l0.0429688-0.1152344l0.0581055-0.1308594l0.1401367-0.315918
		c0.081543-0.1889648,0.1791992-0.3730469,0.2807617-0.5581055l0.0810547-0.1513672
		c0.0463867-0.1020508,0.1069336-0.2241211,0.1914062-0.3818359c0.1230469-0.2148438,0.2143555-0.3525391,0.3061523-0.4902344
		l0.1865234-0.2905273c0.0927733-0.1494141,0.1889647-0.3027344,0.2900389-0.4511719l0.0712891-0.1054688
		c0.0395508-0.0556641,0.0864258-0.1157227,0.1337891-0.175293c0.3129883-0.4282227,0.612793-0.8071289,0.949707-1.199707
		c0.0556641-0.074707,0.0932617-0.1240234,0.1669922-0.2109375l0.1308594-0.1416016
		c0.059082-0.0629883,0.1083984-0.1147461,0.1704102-0.1884766c0.1782227-0.2011719,0.3588867-0.3925781,0.5405273-0.5849609
		C4.6267915,27.6987305,4.8260102,27.5,5.0169282,27.3198242c0.1889648-0.1894531,0.3886719-0.3881836,0.6079102-0.5844727
		c0.0986328-0.0981445,0.1591797-0.1567383,0.2099609-0.2011719l1.0917969-0.9599609l0.6264648-0.5097656
		c0.2651367-0.2138672,0.539063-0.4272461,0.8125005-0.6396484c0.206543-0.1650391,0.418457-0.324707,0.6313477-0.4838867
		c0.2714844-0.2041016,0.5532227-0.4082031,0.8461914-0.6206055l0.2612305-0.1865234
		c0.1396484-0.1005859,0.2827148-0.2026367,0.4311523-0.3017578c0.324707-0.2202148,0.6318359-0.4277344,0.9169922-0.6137695
		c0.1757812-0.1264648,0.3251953-0.2324219,0.4755859-0.324707c0.0405273-0.03125,0.105957-0.0727539,0.1772461-0.1123047
		c0.7470703-0.4873047,1.3837891-0.887207,1.9550781-1.2280273c0.1723633-0.1079102,0.3413086-0.2084961,0.4985352-0.296875
		c0.6196289-0.3701172,1.25-0.7358398,1.8764639-1.0893555l0.230957-0.1362305
		c0.690918-0.3867188,1.3837891-0.753418,2.0390625-1.0947266c0.1679688-0.0947266,0.3500977-0.1870117,0.5102539-0.2666016
		c0.4179688-0.2216797,0.8115234-0.4262695,1.1806641-0.6137695c0.0092773-0.2094727,0.0205078-0.418457,0.0332031-0.6279297
		c0.0112305-0.1821289,0.0234375-0.3530273,0.0449219-0.5229492c0.0175781-0.3017578,0.0380859-0.6362305,0.0703125-0.9897461
		l0.0703125-0.543457c0.0317383-0.3046875,0.0737305-0.6142578,0.1176758-0.9204102
		c0.0341797-0.2285156,0.0683594-0.4311523,0.1079102-0.6245117l0.0322266-0.2138672
		c0.0249023-0.1655273,0.050293-0.3334961,0.0834961-0.4990234l0.0429688-0.1992188l0.03125-0.0947266
		c0.0185547-0.1152344,0.0537109-0.2602539,0.0825195-0.4106445l0.0859375-0.3574219
		c0.0400391-0.1708984,0.0742188-0.3134766,0.1035156-0.4179688c0.0444336-0.1870117,0.1010742-0.3774414,0.1591797-0.5717773
		l0.3173828-1.0664062l0.034668-0.034668c0.1455078-0.4047852,0.3081055-0.8134766,0.4941406-1.2407227
		c0.0141602-0.0483398,0.0483398-0.1333008,0.0869141-0.2104492l0.2675781-0.527832
		c0.0844727-0.1738281,0.1704102-0.3481445,0.2666016-0.5180664l0.0668945-0.1352539
		c0.09375-0.1669922,0.144043-0.2456055,0.1953125-0.3242188l0.0874023-0.1386719
		c0.1176758-0.1884766,0.2299805-0.3671875,0.3320312-0.515625c0.0385742-0.0717773,0.1108398-0.184082,0.1665039-0.2529297
		l0.3828125-0.4975586c0.0820312-0.1079102,0.1645508-0.215332,0.2519531-0.3178711l0.0693359-0.0766602
		c-0.0009766,0.0004883-0.0014648,0.0009766-0.0019531,0.0009766c-0.0053711,0,0.0288086-0.0415039,0.0649414-0.0805664
		c0.0551758-0.0673828,0.1313477-0.1479492,0.2094727-0.2275391l0.0913086-0.0961914
		c0.1303711-0.1391602,0.2641602-0.2744141,0.4086914-0.4208984l0.2089844-0.2172852l0.0839844-0.0756836
		c0.0556641-0.0463867,0.1196289-0.0932617,0.2119141-0.1557617c0.2675781-0.2338867,0.6020508-0.4936523,0.9931641-0.7739258
		c0.0649414-0.0541992,0.1567383-0.1225586,0.2509766-0.1801758c0.0712891-0.046875,0.1616211-0.1000977,0.2470703-0.1450195
		c0.0410156-0.0273438,0.2841797-0.1699219,0.2841797-0.1699219c0.328125-0.1821289,0.5605469-0.3032227,0.8271484-0.4311523
		c0,0,0.3364258-0.1582031,0.4458008-0.2045898c0.2700195-0.112793,0.5488281-0.2133789,0.8496094-0.3178711l0.0922852-0.0327148
		c0.1147461-0.0410156,0.230957-0.0805664,0.3466797-0.1113281c0.3823242-0.1176758,0.8129883-0.2275391,1.3320312-0.3383789
		c0.5673828-0.1010742,1.0263691-0.1616211,1.461916-0.1923828c0,0,0.3222656-0.0214844,0.3754883-0.0234375
		C33.4080429,0.003418,33.5603867,0,33.7098007,0c0.2392578,0,0.4716797,0.0097656,0.6992188,0.0234375l0.4570312,0.0517578
		c0.1645508,0.0166016,0.3261719,0.034668,0.4970703,0.0693359c0.0986328,0.0219727,0.1826172,0.0458984,0.2636719,0.0703125
		c0.1967773,0.0463867,0.4125977,0.097168,0.6411133,0.175293c0.1005859,0.0151367,0.2143555,0.0415039,0.3608398,0.0908203
		c0.2124023,0.0795898,0.3979492,0.1640625,0.5805664,0.2495117l14.2783203,6.6293945l-0.0097656,0.0244141
		c2.6582031,1.4521484,4.3061523,4.4970703,4.902832,9.0625l13.7416992,6.3798828L70.1150742,22.84375
		c2.9208984,1.434082,4.8378906,3.15625,5.8520508,5.2539062c0,0,0.1518555,0.3452148,0.1850586,0.4321289
		c0.0551758,0.1269531,0.105957,0.2617188,0.1601562,0.4072266l0.0532227,0.1464844l0.1533203,0.5483398
		c0.0737305,0.324707,0.1098633,0.5151367,0.1313477,0.6787109c0.0297852,0.1850586,0.0610352,0.4223633,0.065918,0.6831055
		c0.019043,0.1743164,0.0302734,0.3920898,0.0302734,0.6069336c0,0.1796875-0.0009766,0.3818359-0.027832,0.5966797
		c-0.0673828,1.1147461-0.3540039,2.3227539-0.8491211,3.5605469c-1.1074219,2.328125-3.0761719,3.8789062-5.7333984,4.5742188
		l-0.1010742,0.0249023c-0.0893555,0.019043-0.3325195,0.0610352-0.3325195,0.0610352
		c-2.1733398,0.4467773-4.2416992,1.1206055-6.1694336,2.0048828c0.0009766,0.0024414-0.0366211,0.0571289-0.0366211,0.1152344
		c-0.0019531,0.2290039,0.0625,1.1313477,0.9619141,3.2807617l6.4594727,12.5429688
		c0.0014648,0.0024414,0.0600586,0.1054688,0.1557617,0.309082l0.097168,0.1914062
		c0.9882812,2.1313477,2.5966797,6.1708984,2.565918,9.9223633c0,0.293457-0.0102539,0.5908203-0.0209961,0.8842773
		c-0.0517578,1.7250977-1.2744141,3.2543945-2.8447266,3.5546875l-16.418457,3.1894531
		c-0.1787109,0.0351562-0.3603516,0.0527344-0.5385742,0.0527344c-0.234375,0-0.4633789-0.0297852-0.6850586-0.0883789
		l-0.0185547,0.0366211l-0.4462891-0.1933594l-10.7944336-5.0224609l-3.5673828,6.9150391
		c-0.5043945,0.9912109-1.3911133,1.6953125-2.371582,1.8803711l-16.4423847,3.1982422
		C19.4099941,83.2275391,19.2254238,83.2460938,19.0428066,83.2460938z"/>
	<path class="st14" d="M45.5521736,8.1395359c7.222477-1.4039078,9.5643845,4.5262518,9.5921745,12.5154018
		c7.4875145,0.804285,16.9683228,2.8987656,19.4661789,8.0967274c0.0588226,0.1169529,0.1028137,0.2196808,0.1467209,0.3309689
		c0.0659332,0.1583824,0.1170425,0.3025208,0.1754837,0.4623451c0.0508804,0.1698685,0.086998,0.316906,0.1305389,0.4710789
		c0.0505066,0.2127209,0.0790558,0.3698082,0.1002731,0.5111942c0.0356674,0.1984978,0.0491714,0.3670559,0.0551605,0.5370884
		c0.0134201,0.1771355,0.0268478,0.3542709,0.0252838,0.5343361c-0.0013428,0.1543331-0.0026093,0.3000908-0.0187912,0.4401836
		c-0.06147,1.0476379-0.3249969,2.1088905-0.7454834,3.1578484c-0.8304443,1.7449188-2.3528061,3.0679779-4.7216949,3.6825142
		c-0.0637131,0.0166664-0.1274185,0.0311813-0.1911011,0.04356c-0.0636902,0.0123825-0.1273499,0.0226212-0.1910019,0.0307121
		c-2.3227997,0.4771805-4.5132141,1.2110977-6.4506645,2.1012802c-0.5329971,0.2234268-0.9272118,0.8307419-0.9328041,1.473793
		c-0.0116272,1.337532,0.9781303,3.6359558,1.1028137,3.9198685l4.0306778,7.8359184l2.4788132,4.8079262
		c0.0022202,0.0034218,0.0442886,0.0684204,0.1176376,0.2339211c0.0293732,0.0627594,0.0660858,0.1412163,0.1177139,0.2253494
		c0.6312866,1.3751945,2.4277496,5.519722,2.3954773,9.232254c-0.002388,0.2743607-0.0123367,0.5587692-0.0222168,0.8345871
		c-0.0311966,1.0075226-0.7425461,1.9589539-1.6266251,2.1307983l-16.4229088,3.1922913
		c-0.5319519,0.1034012-1.0237503-0.1091461-1.303978-0.5682373l-4.6912537-7.5620117
		c-0.0074921,0.0014572-0.1844749-0.2893982-0.4651527-0.6970596c-0.6865654-1.0391922-2.0094032-2.8791351-2.6312637-2.7582588
		c-0.6143532,0.1194191-1.9737282,2.480732-2.695694,3.7937202c-0.2737465,0.5154266-0.4543724,0.8595276-0.4638786,0.8776398
		l-4.8462486,9.4073486c-0.2891808,0.5697784-0.7939148,0.9845963-1.3258553,1.0879898l-16.4453907,3.1966629
		c-0.8466187,0.164566-1.5517406-0.4601746-1.5657272-1.4332428c-0.0048847-0.2986145-0.009758-0.5972519-0.0070744-0.9059219
		c0.0331669-3.8154221,2.0141125-8.8482742,2.6253414-10.3280411c0.1220341-0.2719498,0.1801128-0.4133377,0.1831684-0.420784
		l2.5709267-5.7894936l4.1729946-9.3963203c0.1378441-0.369175,1.1784706-3.0622635,1.1900978-4.3997955
		c0.0055904-0.6430511-0.386879-1.0974503-0.9177761-1.1140785c-1.9285221-0.1387138-4.1060734-0.0235863-6.4285011,0.4107399
		c-0.127367,0.0247574-0.2622299,0.050972-0.3820267,0.0656967c-2.3736858,0.3073235-3.8781738-0.427372-4.6810379-1.8548126
		c-0.4109898-0.9044533-0.642313-1.8267097-0.6935291-2.8182068c-0.0135727-0.1599998-0.0121565-0.3229103-0.0106659-0.494381
		c0.001565-0.1800652,0.0106249-0.3615685,0.034667-0.5459862c0.0253086-0.3301773,0.0413351-0.4531326,0.06493-0.5861053
		c0.0550566-0.3102875,0.0709333-0.4160881,0.1092873-0.5262566c0.0388823-0.1701965,0.0851717-0.333252,0.139185-0.52351
		c0.0539389-0.1816673,0.1152105-0.3476486,0.1841393-0.5322456c0.0459967-0.1287651,0.0919943-0.2575455,0.1529684-0.389225
		c2.5968361-6.1882706,12.1537209-11.9833031,19.6805782-15.7060871
		C35.8840752,16.4042053,38.322197,9.5449009,45.5521736,8.1395359z"/>
</g>
</svg>
